<svg xmlns="http://www.w3.org/2000/svg" version="1.1" xmlns:xlink="http://www.w3.org/1999/xlink" xmlns:svgjs="http://svgjs.dev/svgjs" width="1000" height="267" viewBox="0 0 1000 267"><g transform="matrix(1,0,0,1,-0.6060606060606233,0.1634974292782374)"><svg viewBox="0 0 396 106" data-background-color="#ffffff" preserveAspectRatio="xMidYMid meet" height="267" width="1000" xmlns="http://www.w3.org/2000/svg" xmlns:xlink="http://www.w3.org/1999/xlink"><defs></defs><g id="tight-bounds" transform="matrix(1,0,0,1,0.2400000000000091,-0.06490909177338722)"><svg viewBox="0 0 395.52 106.12981818354673" height="106.12981818354673" width="395.52"><g><svg viewBox="0 0 395.52 106.12981818354673" height="106.12981818354673" width="395.52"><g transform="matrix(1,0,0,1,0,51.05683809166311)"><svg viewBox="0 0 395.52 55.07298009188362" height="55.07298009188362" width="395.52"><g><svg viewBox="0 0 395.52 55.07298009188362" height="55.07298009188362" width="395.52"><g><svg viewBox="0 0 395.52 55.07298009188362" height="55.07298009188362" width="395.52"><g transform="matrix(1,0,0,1,0,0)"><svg width="395.52" viewBox="2.5 -34.95 261.17 36.370000000000005" height="55.07298009188362" data-palette-color="#d4eb3f"><path d="M25.3-33.5Q28.05-33.15 29.9-30.65L29.9-30.65Q29.25-29.7 28.53-29.28 27.8-28.85 26.75-28.8L26.75-28.8Q22.4-28.75 19.33-28.45 16.25-28.15 12.83-26.45 9.4-24.75 8.95-21L8.95-21Q7.6-18.25 7.6-14.55L7.6-14.55Q7.6-12.65 8.05-9.7L8.05-9.7Q8.65-5.9 11.8-5.9L11.8-5.9Q12.6-5.9 13.05-6L13.05-6Q15.7-6.45 18.35-8L18.35-8Q19.85-8.95 21.35-10.18 22.85-11.4 23.15-11.6L23.15-11.6 24.45-12.65Q25-13.15 25.28-13.58 25.55-14 25.55-14.65L25.55-14.65Q25.55-14.9 25.45-15.4L25.45-15.4Q23.75-15.25 20.45-15.05L20.45-15.05 19-14.95Q18.05-14.85 16.15-14.75L16.15-14.75Q14.1-14.75 12.93-15.73 11.75-16.7 11.1-18.95L11.1-18.95Q11.25-19.05 11.45-19.25 11.65-19.45 11.8-19.45L11.8-19.45 13.55-19.65Q19.3-20.35 22.3-20.5L22.3-20.5Q24.75-20.65 28-20.1L28-20.1Q32.5-19.35 32.5-15.95L32.5-15.95Q32.5-14.7 32-13.35L32-13.35Q31.75-12.6 31.2-11.6L31.2-11.6Q30.05-9.15 28.05-7.35 26.05-5.55 23.2-3.9L23.2-3.9Q20.95-2.55 19.25-1.8 17.55-1.05 15.65-0.9L15.65-0.9Q15.2-0.85 14.25-0.85L14.25-0.85Q9.9-0.85 6.35-3.8L6.35-3.8Q4.6-5.3 3.68-7.03 2.75-8.75 2.6-10.95L2.6-10.95Q2.5-12.45 2.5-13.05L2.5-13.05Q2.5-15.9 3.2-18.38 3.9-20.85 5.85-26.1L5.85-26.1Q7.8-30.35 12.15-32.08 16.5-33.8 21.35-33.8L21.35-33.8Q23.4-33.8 25.3-33.5L25.3-33.5ZM46.6-7.8Q46.1-7.5 45.15-7.5L45.15-7.5Q44.8-7.5 44.3-7.55 43.8-7.6 43.45-7.55L43.45-7.55Q43.85-5.9 45.35-4.88 46.85-3.85 48.7-3.85L48.7-3.85Q50.3-3.85 51.55-4.55L51.55-4.55Q53.4-5.5 54.75-6.8L54.75-6.8Q55.7-7.75 56.55-7.75L56.55-7.75Q57.1-7.75 57.5-7.2L57.5-7.2Q57.9-6.55 57.9-5.6L57.9-5.6Q57.9-4.6 57.5-4.05L57.5-4.05Q56.2-2.05 54.12-1.3 52.05-0.55 49.3-0.55L49.3-0.55Q46.45-0.55 43.8-1.8 41.15-3.05 39.27-5.23 37.4-7.4 36.8-10.05L36.8-10.05Q36.4-11.6 36.4-13.1L36.4-13.1Q36.4-15.45 37.72-16.9 39.05-18.35 42-19.65L42-19.65Q44.7-20.8 47-20.8L47-20.8Q48.65-20.8 50.2-20.3L50.2-20.3Q55-18.8 55-16.2L55-16.2Q55-14.55 53.05-12.2L53.05-12.2Q52.1-11.1 50.8-10.25 49.5-9.4 48.27-8.72 47.05-8.05 46.6-7.8L46.6-7.8ZM48.7-17.05Q48.65-17.3 48.32-17.48 48-17.65 47.95-17.7L47.95-17.7Q46.6-17.8 45.2-16.93 43.8-16.05 42.87-14.7 41.95-13.35 41.95-12.1L41.95-12.1 42-11.7Q42.05-11.5 42.52-11.2 43-10.9 43.1-11L43.1-11Q46.65-13.65 48.45-15.25L48.45-15.25Q48.75-15.55 48.75-16.35L48.75-16.35Q48.75-16.85 48.7-17.05L48.7-17.05ZM68.9-18.85Q68.9-18.55 68.8-18.07 68.7-17.6 68.75-17.45L68.75-17.45Q72.2-18.2 74.6-18.2L74.6-18.2Q78.35-18.2 80.25-14.6L80.25-14.6Q81.8-11.55 81.8-7.85L81.8-7.85Q81.8-6.9 81.6-5.1L81.6-5.1Q81.45-3.9 80.65-3.18 79.85-2.45 78.75-2.45L78.75-2.45Q77.6-2.45 77.12-2.88 76.65-3.3 76.57-3.85 76.5-4.4 76.5-5.6L76.5-5.6 76.45-6.65Q76.35-9.65 76.05-11.85L76.05-11.85Q75.9-12.75 75.37-13.13 74.85-13.5 74-13.5L74-13.5Q73.2-13.5 72.1-13.25L72.1-13.25Q70.4-12.8 69.82-12.55 69.25-12.3 68.15-11.5L68.15-11.5Q67.8-11.25 67.65-10.5 67.5-9.75 67.5-9.65L67.5-9.65Q66.85-6.45 66.1-2L66.1-2Q66.05-1.8 65.9-1.05 65.75-0.3 65.32 0.03 64.9 0.35 64.1 0.25L64.1 0.25Q60.95-0.15 60.9-2.4L60.9-2.4Q60.85-5.3 61.35-9.25L61.35-9.25Q61.7-12.1 62-13.85L62-13.85Q62.1-14.65 62.27-15.8 62.45-16.95 62.6-18.45L62.6-18.45Q62.75-19.6 62.9-20.15 63.05-20.7 63.6-21.08 64.15-21.45 65.3-21.45L65.3-21.45Q66.75-21.45 67.7-20.8 68.65-20.15 68.9-18.95L68.9-18.95 68.9-18.85ZM91.04-21Q92.29-20.65 92.82-20.15 93.34-19.65 93.34-18.8L93.34-18.8Q93.34-18.4 93.19-17.75L93.19-17.75Q92.64-15.5 92.59-13.25L92.59-13.25Q92.54-10.7 93.39-8.55L93.39-8.55Q93.69-7.8 93.97-7.48 94.24-7.15 94.64-7.15L94.64-7.15Q95.14-7.15 95.94-8.05L95.94-8.05Q97.79-10.25 98.69-12.45 99.59-14.65 99.79-17L99.79-17Q99.94-18.55 100.29-18.95L100.29-18.95Q100.49-19.15 100.94-19.2 101.39-19.25 102.24-19.25L102.24-19.25Q103.59-19.15 104.12-19 104.64-18.85 104.84-18.5 105.04-18.15 105.04-17.35L105.04-17.35 104.99-15Q104.99-14.25 104.94-12.8L104.94-12.8Q104.79-8.3 104.69-6.1L104.69-6.1Q104.64-4.35 103.64-1.7L103.64-1.7Q103.54-1.55 103.09-1.28 102.64-1 102.29-0.95L102.29-0.95Q102.19-0.95 101.87-1.28 101.54-1.6 101.39-1.85L101.39-1.85Q101.04-2.65 100.59-4L100.59-4 100.19-4.95 100.09-5.25 99.94-5.1 99.14-4.6Q98.54-4.1 97.84-3.8L97.84-3.8Q96.69-3.1 95.09-3.1L95.09-3.1Q93.09-3.1 91.29-4.23 89.49-5.35 88.44-7.3L88.44-7.3Q86.74-10.3 86.74-14.25L86.74-14.25Q86.74-16.25 87.29-19.3L87.29-19.3Q87.39-20.05 88.24-20.6L88.24-20.6Q88.99-21.15 89.99-21.15L89.99-21.15Q90.49-21.15 91.04-21L91.04-21ZM115.19-23.3Q115.09-23 114.47-22.65 113.84-22.3 113.44-22L113.44-22 112.04-22.75Q109.99-23.85 109.24-24.5L109.24-24.5Q108.84-24.8 108.84-25.25L108.84-25.25Q108.84-25.55 109.07-25.78 109.29-26 109.74-26L109.74-26Q111.69-26 114.49-25L114.49-25Q114.79-24.95 115.04-24.33 115.29-23.7 115.19-23.3L115.19-23.3ZM110.69-14Q110.84-14.65 110.89-14.95 110.94-15.25 110.94-15.6L110.94-15.6Q110.94-16.3 111.37-16.7 111.79-17.1 112.99-17.1L112.99-17.1Q114.39-17.1 115.47-16.23 116.54-15.35 116.79-13.95L116.79-13.95Q116.94-13.25 116.99-12.4 117.04-11.55 117.04-11.3L117.04-11.3 117.74-2.75Q117.89-1.4 117.37-0.68 116.84 0.05 115.39 0.05L115.39 0.05Q114.14 0.05 113.27-0.65 112.39-1.35 112.19-2.45L112.19-2.45 110.89-13.05 110.69-14ZM129.99-18.85Q129.99-18.55 129.89-18.07 129.79-17.6 129.84-17.45L129.84-17.45Q133.29-18.2 135.69-18.2L135.69-18.2Q139.44-18.2 141.34-14.6L141.34-14.6Q142.89-11.55 142.89-7.85L142.89-7.85Q142.89-6.9 142.69-5.1L142.69-5.1Q142.54-3.9 141.74-3.18 140.94-2.45 139.84-2.45L139.84-2.45Q138.69-2.45 138.21-2.88 137.74-3.3 137.66-3.85 137.59-4.4 137.59-5.6L137.59-5.6 137.54-6.65Q137.44-9.65 137.14-11.85L137.14-11.85Q136.99-12.75 136.46-13.13 135.94-13.5 135.09-13.5L135.09-13.5Q134.29-13.5 133.19-13.25L133.19-13.25Q131.49-12.8 130.91-12.55 130.34-12.3 129.24-11.5L129.24-11.5Q128.89-11.25 128.74-10.5 128.59-9.75 128.59-9.65L128.59-9.65Q127.94-6.45 127.19-2L127.19-2Q127.14-1.8 126.99-1.05 126.84-0.3 126.41 0.03 125.99 0.35 125.19 0.25L125.19 0.25Q122.04-0.15 121.99-2.4L121.99-2.4Q121.94-5.3 122.44-9.25L122.44-9.25Q122.79-12.1 123.09-13.85L123.09-13.85Q123.19-14.65 123.36-15.8 123.54-16.95 123.69-18.45L123.69-18.45Q123.84-19.6 123.99-20.15 124.14-20.7 124.69-21.08 125.24-21.45 126.39-21.45L126.39-21.45Q127.84-21.45 128.79-20.8 129.74-20.15 129.99-18.95L129.99-18.95 129.99-18.85ZM156.94-7.8Q156.44-7.5 155.49-7.5L155.49-7.5Q155.14-7.5 154.64-7.55 154.14-7.6 153.78-7.55L153.78-7.55Q154.19-5.9 155.69-4.88 157.19-3.85 159.03-3.85L159.03-3.85Q160.64-3.85 161.89-4.55L161.89-4.55Q163.74-5.5 165.09-6.8L165.09-6.8Q166.04-7.75 166.89-7.75L166.89-7.75Q167.44-7.75 167.84-7.2L167.84-7.2Q168.24-6.55 168.24-5.6L168.24-5.6Q168.24-4.6 167.84-4.05L167.84-4.05Q166.54-2.05 164.46-1.3 162.39-0.55 159.64-0.55L159.64-0.55Q156.78-0.55 154.14-1.8 151.49-3.05 149.61-5.23 147.74-7.4 147.14-10.05L147.14-10.05Q146.74-11.6 146.74-13.1L146.74-13.1Q146.74-15.45 148.06-16.9 149.39-18.35 152.34-19.65L152.34-19.65Q155.03-20.8 157.34-20.8L157.34-20.8Q158.99-20.8 160.53-20.3L160.53-20.3Q165.34-18.8 165.34-16.2L165.34-16.2Q165.34-14.55 163.39-12.2L163.39-12.2Q162.44-11.1 161.14-10.25 159.84-9.4 158.61-8.72 157.39-8.05 156.94-7.8L156.94-7.8ZM159.03-17.05Q158.99-17.3 158.66-17.48 158.34-17.65 158.28-17.7L158.28-17.7Q156.94-17.8 155.53-16.93 154.14-16.05 153.21-14.7 152.28-13.35 152.28-12.1L152.28-12.1 152.34-11.7Q152.39-11.5 152.86-11.2 153.34-10.9 153.44-11L153.44-11Q156.99-13.65 158.78-15.25L158.78-15.25Q159.09-15.55 159.09-16.35L159.09-16.35Q159.09-16.85 159.03-17.05L159.03-17.05ZM206.53-33.5Q209.28-33.15 211.13-30.65L211.13-30.65Q210.48-29.7 209.76-29.28 209.03-28.85 207.98-28.8L207.98-28.8Q203.63-28.75 200.56-28.45 197.48-28.15 194.06-26.45 190.63-24.75 190.18-21L190.18-21Q188.83-18.25 188.83-14.55L188.83-14.55Q188.83-12.65 189.28-9.7L189.28-9.7Q189.88-5.9 193.03-5.9L193.03-5.9Q193.83-5.9 194.28-6L194.28-6Q196.93-6.45 199.58-8L199.58-8Q201.08-8.95 202.58-10.18 204.08-11.4 204.38-11.6L204.38-11.6 205.68-12.65Q206.23-13.15 206.51-13.58 206.78-14 206.78-14.65L206.78-14.65Q206.78-14.9 206.68-15.4L206.68-15.4Q204.98-15.25 201.68-15.05L201.68-15.05 200.23-14.95Q199.28-14.85 197.38-14.75L197.38-14.75Q195.33-14.75 194.16-15.73 192.98-16.7 192.33-18.95L192.33-18.95Q192.48-19.05 192.68-19.25 192.88-19.45 193.03-19.45L193.03-19.45 194.78-19.65Q200.53-20.35 203.53-20.5L203.53-20.5Q205.98-20.65 209.23-20.1L209.23-20.1Q213.73-19.35 213.73-15.95L213.73-15.95Q213.73-14.7 213.23-13.35L213.23-13.35Q212.98-12.6 212.43-11.6L212.43-11.6Q211.28-9.15 209.28-7.35 207.28-5.55 204.43-3.9L204.43-3.9Q202.18-2.55 200.48-1.8 198.78-1.05 196.88-0.9L196.88-0.9Q196.43-0.85 195.48-0.85L195.48-0.85Q191.13-0.85 187.58-3.8L187.58-3.8Q185.83-5.3 184.91-7.03 183.98-8.75 183.83-10.95L183.83-10.95Q183.73-12.45 183.73-13.05L183.73-13.05Q183.73-15.9 184.43-18.38 185.13-20.85 187.08-26.1L187.08-26.1Q189.03-30.35 193.38-32.08 197.73-33.8 202.58-33.8L202.58-33.8Q204.63-33.8 206.53-33.5L206.53-33.5ZM223.43-23.3Q223.33-23 222.7-22.65 222.08-22.3 221.68-22L221.68-22 220.28-22.75Q218.23-23.85 217.48-24.5L217.48-24.5Q217.08-24.8 217.08-25.25L217.08-25.25Q217.08-25.55 217.3-25.78 217.53-26 217.98-26L217.98-26Q219.93-26 222.73-25L222.73-25Q223.03-24.95 223.28-24.33 223.53-23.7 223.43-23.3L223.43-23.3ZM218.93-14Q219.08-14.65 219.13-14.95 219.18-15.25 219.18-15.6L219.18-15.6Q219.18-16.3 219.6-16.7 220.03-17.1 221.23-17.1L221.23-17.1Q222.63-17.1 223.7-16.23 224.78-15.35 225.03-13.95L225.03-13.95Q225.18-13.25 225.23-12.4 225.28-11.55 225.28-11.3L225.28-11.3 225.98-2.75Q226.13-1.4 225.6-0.68 225.08 0.05 223.63 0.05L223.63 0.05Q222.38 0.05 221.5-0.65 220.63-1.35 220.43-2.45L220.43-2.45 219.13-13.05 218.93-14ZM236.83-21.2Q236.98-20.7 236.88-19.65L236.88-19.65 236.28-13.75Q236.53-13.95 237.03-15.18 237.53-16.4 237.98-17.18 238.43-17.95 238.68-18.2L238.68-18.2Q241.03-20.45 243.98-20.9 246.93-21.35 250.48-21.3L250.48-21.3Q250.83-21.3 251.25-21.03 251.68-20.75 251.68-20.58 251.68-20.4 251.38-20.03 251.08-19.65 250.83-19.55L250.83-19.55Q247.83-18.55 245.55-17.25 243.28-15.95 241.63-13.85L241.63-13.85Q237.73-8.9 237.13-3.65L237.13-3.65Q236.98-2.25 236.28-1.78 235.58-1.3 234.33-1.3L234.33-1.3Q232.93-1.3 231.83-2.5 230.73-3.7 230.73-5.15L230.73-5.15Q230.78-10.45 230.78-21.05L230.78-21.05Q230.78-22.5 231.43-23.08 232.08-23.65 233.78-23.65L233.78-23.65Q235.03-23.65 235.9-22.95 236.78-22.25 236.83-21.2L236.83-21.2ZM259.47-2.3Q260.47-3.5 260.92-4.2L260.92-4.2Q261.47-4.95 262.07-4.95L262.07-4.95Q262.67-4.95 262.97-4.2L262.97-4.2Q263.67-2.2 263.67-1.05L263.67-1.05Q263.67-0.55 263.62-0.3L263.62-0.3Q263.42 0.7 262.5 1.1 261.57 1.5 260.32 1.4L260.32 1.4Q259.87 1.4 258.8 1.4 257.72 1.4 256.95 1.1 256.17 0.8 255.57 0.1L255.57 0.1Q254.27-1.45 254.27-2.9L254.27-2.9Q254.27-14.6 254.17-20.5L254.17-20.5 254.12-29.3Q254.12-31.05 253.77-32.5L253.77-32.5Q253.72-32.75 253.72-33.1L253.72-33.1Q253.72-34.95 256.22-34.95L256.22-34.95Q257.87-34.95 259-33.88 260.12-32.8 260.02-31.05L260.02-31.05Q259.87-28.4 259.62-23.1L259.62-23.1 259.32-17.1Q258.92-8.6 258.77-4.35L258.77-4.35Q258.72-3.85 258.82-3.25 258.92-2.65 258.97-2.5L258.97-2.5 259.47-2.3Z" opacity="1" transform="matrix(1,0,0,1,0,0)" fill="#d4eb3f" class="undefined-text-0" data-fill-palette-color="primary" id="text-0"></path></svg></g></svg></g></svg></g></svg></g><g transform="matrix(1,0,0,1,169.3588563529252,0)"><svg viewBox="0 0 56.80228729414963 38.05542924349159" height="38.05542924349159" width="56.80228729414963"><g><svg xmlns="http://www.w3.org/2000/svg" xmlns:xlink="http://www.w3.org/1999/xlink" xml:space="preserve" version="1.1" style="shape-rendering:geometricPrecision;text-rendering:geometricPrecision;image-rendering:optimizeQuality;" viewBox="0 0 713 665" x="8" y="0" fill-rule="evenodd" clip-rule="evenodd" height="38.05542924349159" width="40.80228729414963" class="icon-icon-0" data-fill-palette-color="accent" id="icon-0"><g fill="#b0e045" data-fill-palette-color="accent"><path class="" d="M353 665c-275-54-333-293-353-535 135-7 262-23 356-130 95 107 223 123 357 130-19 242-78 481-353 535l-4 0-3 0z m3-34c239-48 301-252 321-469-110-7-240-32-321-112-80 80-210 105-319 112 20 217 82 421 319 469z" fill="#b0e045" fill-rule="nonzero" data-fill-palette-color="accent"></path><path class="" d="M356 174c29 0 56 12 75 31l0 0 0 0c42 42 42 109 0 150-5 5-10 10-16 14 10 5 19 12 27 20 22 22 36 53 36 86 0 22-34 22-34 0 0-24-10-46-26-62-34-34-90-34-124 0-15 16-24 38-24 62 0 22-34 22-34 0 0-33 13-64 35-86 8-8 16-15 26-20-6-4-12-9-16-14-41-41-41-108 0-150l0 0 0 0c19-19 45-31 75-31l0 0z m52 55c-14-13-32-21-52-21-20 0-39 8-52 21l0 0c-27 28-27 74 0 102 13 14 32 22 52 22 20 0 38-8 52-22 28-28 28-74 0-102l0 0z" fill="#b0e045" fill-rule="nonzero" data-fill-palette-color="accent"></path></g></svg><g></g></g></svg></g><g><rect width="169.3588563529252" height="4.96653818000152" y="32.08889106349007" x="226.16114364707482" fill="#b0e045" data-fill-palette-color="accent"></rect><rect width="169.3588563529252" height="4.96653818000152" y="32.08889106349007" x="0" fill="#b0e045" data-fill-palette-color="accent"></rect><rect width="169.3588563529252" height="4.96653818000152" y="22.155814703487028" x="226.16114364707482" fill="#b0e045" data-fill-palette-color="accent"></rect><rect width="169.3588563529252" height="4.96653818000152" y="22.155814703487028" x="0" fill="#b0e045" data-fill-palette-color="accent"></rect></g></svg></g></svg><rect width="395.52" height="106.12981818354673" fill="none" stroke="none" visibility="hidden"></rect></g></svg></g></svg>