<?xml version="1.0" standalone="no"?>
<!DOCTYPE svg PUBLIC "-//W3C//DTD SVG 20010904//EN"
 "http://www.w3.org/TR/2001/REC-SVG-20010904/DTD/svg10.dtd">
<svg version="1.0" xmlns="http://www.w3.org/2000/svg"
 width="675.000000pt" height="900.000000pt" viewBox="0 0 675.000000 900.000000"
 preserveAspectRatio="xMidYMid meet">
<metadata>
Created by potrace 1.16, written by Peter Selinger 2001-2019
</metadata>
<g transform="translate(0.000000,900.000000) scale(0.100000,-0.100000)"
fill="#000000" stroke="none">
<path d="M0 6918 c0 -1145 3 -2078 7 -2074 5 4 12 26 18 47 12 47 31 52 27 8
-1 -16 2 -29 7 -29 6 0 6 -12 1 -31 -5 -18 -7 -36 -4 -41 3 -5 0 -16 -7 -24
-10 -13 -10 -17 2 -25 8 -5 10 -9 5 -9 -5 0 -3 -7 4 -15 16 -20 7 -29 -20 -20
-12 4 -19 12 -16 20 2 7 -2 16 -10 19 -12 5 -14 -15 -12 -136 2 -97 7 -143 15
-145 7 -3 13 8 15 24 2 23 7 27 27 25 22 -4 23 -2 16 35 l-7 38 22 -20 c12
-11 65 -61 117 -112 94 -91 183 -163 203 -163 6 0 10 -4 10 -9 0 -5 20 -28 45
-52 43 -41 57 -69 35 -69 -6 0 -20 9 -32 20 -43 40 -45 12 -3 -45 33 -44 103
-115 115 -115 5 0 10 -6 10 -14 0 -16 21 -26 53 -26 15 0 18 -3 9 -9 -9 -6 1
-22 38 -61 45 -47 60 -70 45 -70 -11 0 -75 38 -97 57 -90 81 -143 131 -157
147 -36 45 -122 126 -151 142 -16 10 -32 26 -35 35 -3 9 -17 21 -30 27 -14 6
-25 16 -25 22 0 5 -7 10 -16 10 -12 0 -15 -6 -10 -25 5 -18 2 -27 -10 -32 -9
-3 -19 -1 -23 4 -3 6 -21 18 -39 27 -17 9 -32 21 -32 26 0 5 -18 19 -40 31
-28 16 -40 29 -40 45 0 12 -7 24 -15 28 -28 10 -18 -48 13 -77 15 -15 31 -27
34 -27 4 0 20 -12 36 -27 16 -16 47 -43 68 -61 l39 -34 -35 6 c-19 4 -51 17
-71 31 -20 13 -50 25 -65 27 -29 3 -29 2 -32 -53 l-3 -56 50 -7 c28 -4 53 -11
56 -16 3 -6 16 -10 28 -10 12 0 45 -12 72 -26 28 -14 62 -27 78 -30 22 -4 27
-2 27 15 0 18 3 19 26 11 29 -12 45 -23 176 -130 55 -45 85 -76 77 -78 -8 -3
-20 -10 -28 -16 -11 -8 -13 -8 -7 2 4 7 1 12 -9 12 -9 0 -13 -4 -10 -10 3 -5
1 -10 -4 -10 -6 0 -11 5 -11 10 0 6 -7 10 -15 10 -8 0 -15 -4 -15 -10 0 -6
-10 -5 -25 2 -19 9 -29 7 -51 -7 -30 -20 -26 -26 36 -48 25 -10 61 -30 80 -47
l35 -29 -30 -2 c-16 -1 -40 -1 -52 0 -12 1 -24 -3 -28 -9 -3 -5 1 -10 9 -10 9
0 16 -7 16 -15 0 -18 -4 -18 -48 -6 -17 5 -32 6 -32 2 0 -5 -11 -6 -25 -3 -14
2 -25 11 -25 18 0 8 -6 14 -12 14 -7 1 -38 3 -68 7 -143 15 -164 2 -69 -40 33
-15 58 -31 54 -36 -6 -11 -36 -3 -47 13 -10 16 -18 3 -8 -14 5 -9 36 -17 82
-21 94 -9 198 -48 270 -102 31 -23 82 -60 114 -82 79 -55 104 -83 104 -116 0
-21 7 -31 32 -43 17 -9 39 -16 50 -16 10 0 18 -4 18 -10 0 -5 7 -10 15 -10 8
0 15 -4 15 -8 0 -5 16 -16 37 -26 34 -16 35 -18 19 -34 -12 -12 -19 -14 -24
-6 -7 12 -69 29 -89 25 -7 -1 -13 5 -13 14 0 8 -6 15 -14 15 -23 0 -6 -40 22
-51 13 -5 43 -12 65 -15 25 -3 49 -14 63 -29 13 -14 27 -25 32 -25 19 0 22
-33 5 -46 -10 -7 -13 -14 -6 -14 6 0 15 5 18 10 12 20 25 10 25 -19 0 -29 0
-29 -37 -20 -21 6 -45 18 -53 27 -8 9 -31 19 -50 21 -19 1 -47 12 -61 22 -15
10 -32 19 -37 19 -15 0 -23 28 -9 34 7 2 -1 5 -18 5 -21 1 -37 10 -54 31 -29
37 -58 39 -73 4 -9 -19 -9 -33 -1 -55 6 -16 7 -29 2 -29 -5 0 -9 6 -9 13 0 9
-2 9 -8 0 -7 -11 -182 -31 -207 -24 -5 1 -19 4 -30 5 -12 1 -26 6 -33 10 -19
11 -35 -3 -22 -19 6 -8 10 -24 8 -37 -2 -18 -9 -23 -33 -23 -16 1 -39 4 -50 8
-36 12 -47 -5 -28 -43 9 -19 12 -35 7 -37 -5 -2 -8 -23 -6 -48 3 -37 1 -45
-13 -45 -33 0 -105 43 -105 62 0 23 -23 33 -47 19 -16 -10 -17 -10 -1 -11 10
0 25 -15 34 -32 9 -18 23 -41 32 -51 8 -9 12 -20 8 -25 -4 -4 -13 0 -19 8 -7
9 -20 14 -30 12 -9 -2 -17 1 -17 7 0 6 -6 11 -14 11 -7 0 -19 7 -26 15 -33 40
-56 -16 -29 -68 9 -16 9 -22 0 -25 -15 -5 -14 -31 2 -45 20 -18 55 -37 70 -37
18 0 67 -23 67 -32 0 -4 10 -18 23 -31 30 -33 67 -95 67 -113 0 -8 -9 -14 -21
-14 -13 0 -19 -5 -15 -12 3 -7 9 -21 12 -31 4 -10 13 -16 20 -13 8 3 14 -1 14
-8 0 -7 -10 -13 -22 -12 -13 0 -23 6 -23 12 0 6 -24 33 -52 61 -29 27 -53 52
-53 56 0 3 -22 30 -50 59 l-50 53 0 -97 0 -96 39 -7 c41 -7 59 -33 38 -54 -18
-18 -34 -12 -56 22 l-21 32 0 -115 c0 -112 1 -115 24 -126 14 -6 28 -8 33 -3
6 6 9 -56 4 -94 -1 -4 -14 -1 -31 8 l-30 16 0 -41 c0 -38 2 -41 23 -34 12 3
26 13 30 20 12 20 24 17 49 -11 12 -14 28 -25 35 -25 7 0 13 -7 13 -15 0 -27
85 -58 180 -65 25 -2 29 -4 12 -7 -35 -7 -26 -22 31 -48 28 -13 44 -24 34 -24
-59 -2 -95 -53 -63 -90 7 -9 16 -35 19 -58 l5 -42 -50 6 c-37 4 -52 2 -58 -8
-7 -11 -14 -9 -37 9 -15 12 -44 32 -62 44 -35 22 -35 22 -10 29 l24 7 -25 1
c-14 1 -31 10 -38 21 -8 14 -23 20 -47 20 -31 0 -35 -3 -35 -25 0 -16 -6 -25
-15 -25 -13 0 -15 -98 -15 -820 l0 -820 26 -12 c14 -7 32 -25 40 -40 8 -15 18
-28 23 -28 5 0 12 -11 15 -25 l6 -25 3320 0 3320 0 0 1665 c0 1468 -2 1665
-15 1665 -10 0 -15 -10 -15 -30 0 -16 -3 -30 -8 -30 -4 0 -12 -10 -17 -22 -7
-17 -17 -22 -35 -20 -24 3 -24 2 -6 -13 11 -8 16 -15 10 -15 -5 0 -28 -17 -52
-39 -23 -21 -42 -37 -42 -35 0 2 -9 -4 -19 -13 -11 -9 -17 -21 -14 -26 3 -6 1
-7 -5 -3 -6 3 -13 2 -17 -4 -10 -16 -35 -12 -35 5 0 9 -6 15 -14 13 -17 -4
-71 52 -59 61 18 12 21 37 7 62 -18 32 -18 78 1 85 9 4 15 19 15 40 0 24 7 41
25 56 14 12 25 27 25 34 0 6 7 15 15 18 9 3 15 11 14 18 -1 7 -1 21 0 31 1 25
21 11 22 -16 1 -12 6 -1 11 25 8 36 15 48 28 48 12 0 22 14 31 45 9 29 18 44
26 41 8 -3 13 2 13 14 0 11 5 20 10 20 6 0 10 8 10 19 0 10 7 24 15 31 10 9
15 9 15 1 0 -6 5 -11 10 -11 6 0 10 7 10 15 0 8 9 15 20 15 19 0 20 7 20 99 0
96 -1 99 -24 105 -13 3 -45 3 -70 0 -44 -6 -47 -5 -88 38 -65 66 -147 94 -338
113 -36 4 -69 10 -75 15 -5 4 -18 9 -29 11 -11 3 -25 22 -36 49 -11 29 -27 50
-45 59 -15 7 -32 26 -38 42 -6 15 -18 30 -28 32 -9 2 -19 17 -23 33 -4 16 -15
37 -23 46 -14 16 -14 20 3 45 10 16 17 33 16 39 -1 7 4 14 12 17 13 5 13 12 4
37 -9 27 -8 34 10 50 15 14 22 16 31 7 11 -11 27 3 97 85 12 14 30 31 41 39
10 8 25 29 32 47 8 18 26 40 42 49 15 9 26 20 23 25 -3 4 0 8 6 8 17 0 120
-108 120 -126 0 -8 7 -14 15 -14 8 0 15 -5 15 -11 0 -7 11 -22 25 -35 24 -22
33 -24 140 -23 65 1 115 5 115 10 0 6 -7 9 -16 7 -10 -2 -19 2 -21 9 -3 7 16
14 51 18 38 5 56 12 56 21 0 8 -10 14 -25 14 -14 0 -25 5 -25 10 0 6 4 10 9
10 5 0 7 8 4 19 -2 10 3 25 11 34 12 11 13 17 3 20 -7 3 -5 6 6 6 15 1 17 15
17 141 0 115 -3 140 -14 140 -8 0 -18 5 -21 10 -4 6 -3 10 2 9 4 -1 14 -1 21
0 9 1 12 397 12 1946 l0 1945 -3375 0 -3375 0 0 -2082z m4220 1532 c14 -4 19
-8 13 -9 -24 -2 -13 -19 18 -30 30 -10 32 -31 3 -31 -8 0 -14 -4 -14 -10 0 -5
11 -10 23 -10 13 0 27 -3 30 -7 4 -3 30 -14 58 -24 54 -19 89 -44 89 -63 1
-13 46 -66 57 -66 4 0 17 -18 27 -40 11 -22 23 -40 28 -40 4 0 8 -9 8 -20 0
-10 9 -24 20 -30 11 -6 20 -17 20 -25 0 -7 14 -24 31 -36 49 -35 128 -107 157
-142 15 -20 16 -47 2 -47 -6 0 -24 -9 -39 -21 -24 -17 -32 -19 -50 -9 -12 6
-40 12 -62 12 -36 0 -39 3 -39 28 0 36 -17 48 -60 46 -43 -2 -140 36 -176 69
-42 39 -156 54 -178 23 -6 -9 -40 -28 -76 -43 -72 -30 -212 -46 -224 -26 -4 6
-16 11 -27 11 -11 0 -18 -4 -15 -9 3 -4 -31 -9 -77 -10 -54 -1 -87 -7 -97 -16
-10 -9 -20 -11 -26 -5 -17 17 -137 14 -172 -4 -18 -9 -32 -20 -32 -24 0 -4
-15 -14 -32 -21 -24 -10 -28 -15 -16 -18 9 -2 19 -15 22 -29 4 -15 14 -24 26
-24 21 0 29 -20 8 -20 -7 0 -5 -5 5 -11 9 -6 15 -14 12 -19 -3 -4 9 -13 25
-19 24 -8 30 -7 30 5 0 10 12 14 40 14 22 0 40 5 40 11 0 13 152 1 161 -13 3
-5 16 -4 32 3 l25 12 -23 25 c-29 31 -25 38 22 51 34 10 64 4 36 -6 -7 -3 -13
-10 -13 -17 0 -9 22 -15 62 -20 41 -4 65 -12 73 -24 7 -9 25 -30 39 -45 31
-33 34 -72 7 -87 -11 -5 -21 -6 -23 -1 -2 4 -12 5 -23 1 -19 -8 -19 -8 5 -18
24 -10 24 -11 3 -11 -12 -1 -25 -5 -28 -11 -3 -5 -31 -10 -61 -10 -30 0 -54 5
-54 10 0 6 -36 10 -87 10 -89 0 -153 15 -153 36 0 12 -103 26 -136 18 -22 -6
-49 -42 -39 -52 3 -4 9 -2 13 4 4 7 16 8 27 4 19 -7 19 -7 -1 -18 -12 -6 -24
-9 -26 -6 -3 2 -3 -6 -1 -20 4 -18 0 -26 -16 -31 -23 -7 -37 -59 -26 -102 3
-14 22 -41 41 -58 19 -17 34 -39 34 -48 0 -10 15 -24 34 -33 18 -9 41 -30 51
-48 28 -48 54 -69 91 -72 33 -3 34 -2 34 32 0 19 -5 43 -12 53 -15 24 6 46 42
45 60 -3 57 3 55 -96 -1 -51 -7 -106 -14 -122 l-12 -30 -29 32 c-24 27 -30 29
-41 16 -9 -11 -9 -18 -1 -26 9 -9 12 -8 12 2 1 9 10 3 25 -15 17 -20 21 -33
14 -41 -6 -8 -7 -14 0 -18 5 -4 12 -2 16 4 3 5 22 10 41 10 28 0 35 -4 32 -17
-2 -10 -13 -22 -26 -28 -12 -5 -22 -15 -22 -21 0 -7 -9 -14 -20 -17 -13 -3
-20 -13 -20 -29 0 -38 11 -68 25 -68 8 0 17 -9 20 -20 7 -23 98 -88 170 -121
28 -12 64 -33 82 -46 24 -17 40 -22 58 -17 25 6 72 -10 86 -29 3 -4 19 -3 35
4 141 58 187 80 207 100 23 24 22 35 -5 54 -19 12 -21 18 -11 33 6 10 21 16
37 15 14 -1 26 2 26 7 0 14 50 21 72 9 11 -6 37 -13 57 -15 40 -3 141 22 141
37 0 5 18 12 40 15 23 4 40 12 40 20 0 11 53 36 128 59 27 8 72 -17 72 -41 0
-18 24 -44 40 -44 17 0 2 -127 -21 -171 -20 -41 -61 -162 -58 -175 3 -16 -23
-74 -33 -74 -7 0 -7 -4 0 -12 7 -9 6 -38 -4 -93 -17 -99 -21 -427 -5 -510 15
-83 16 -167 2 -192 -6 -12 -11 -35 -11 -50 0 -41 -46 -128 -78 -149 -15 -10
-33 -23 -40 -30 -15 -16 -79 -34 -95 -29 -7 3 -37 7 -67 9 -88 8 -122 22 -154
65 -41 56 -211 131 -298 131 -46 0 -32 -16 45 -54 81 -40 117 -65 122 -86 10
-47 20 -60 55 -74 21 -8 41 -24 45 -36 3 -11 13 -20 21 -20 9 0 14 -11 14 -30
0 -16 4 -30 9 -30 6 0 10 -17 9 -38 0 -36 -1 -37 -58 -55 -34 -11 -70 -16 -87
-13 -67 15 -187 27 -298 32 -66 3 -162 12 -212 20 -110 17 -162 18 -199 4 -46
-18 -13 -33 83 -37 84 -3 155 -17 179 -35 6 -4 13 -5 17 -2 5 6 125 -34 184
-61 17 -8 40 -15 51 -15 11 0 25 -6 31 -14 6 -7 33 -16 59 -20 100 -13 122
-19 122 -31 0 -7 7 -16 16 -19 15 -6 15 -8 1 -24 -9 -9 -15 -21 -14 -27 1 -5
-11 -12 -28 -15 -16 -4 -40 -12 -52 -18 -12 -7 -40 -12 -62 -12 -21 0 -41 -4
-43 -9 -5 -14 -108 0 -108 14 0 8 -18 16 -42 20 -24 4 -48 11 -54 16 -7 6 -16
4 -24 -6 -16 -19 -30 -11 -23 14 6 24 -14 36 -33 20 -14 -11 -14 -13 0 -21 9
-5 16 -22 16 -38 0 -24 -4 -30 -22 -30 l-21 0 23 -25 23 -25 -23 0 c-34 0 -14
-15 48 -35 28 -9 52 -21 52 -26 0 -6 4 -8 9 -5 14 9 71 -15 71 -30 0 -8 10
-14 23 -14 21 -1 71 -30 51 -30 -5 0 -20 -18 -33 -40 -14 -22 -34 -43 -45 -46
-12 -4 -23 -9 -26 -13 -20 -24 -51 -29 -118 -19 -59 10 -83 9 -141 -5 -38 -9
-84 -17 -104 -17 -63 0 -127 -12 -127 -25 0 -15 35 -47 42 -39 3 3 15 -6 26
-20 23 -30 115 -79 152 -82 14 -1 50 -8 80 -14 30 -6 74 -10 97 -8 24 2 43 0
43 -4 0 -15 87 1 125 23 42 25 42 25 91 27 19 1 41 12 55 27 13 13 30 25 37
25 6 0 12 4 12 10 0 5 16 12 35 16 19 3 39 12 46 20 6 8 21 14 33 14 26 0 41
10 48 31 4 9 23 19 42 23 20 4 36 11 36 16 0 6 7 10 16 10 8 0 28 12 43 28 44
42 88 72 110 72 10 0 21 7 25 15 3 8 11 15 19 15 7 0 24 11 37 25 12 13 27 22
31 19 14 -8 118 79 118 99 1 9 7 17 15 17 8 0 16 7 20 15 3 8 13 15 22 15 10
0 15 3 11 6 -7 7 48 50 76 60 9 4 17 10 17 14 0 15 61 70 77 70 9 0 28 12 42
28 43 45 66 53 151 51 78 -2 78 -2 96 -35 10 -18 20 -32 23 -32 3 1 27 -2 52
-6 36 -6 46 -12 42 -24 -2 -10 3 -26 11 -37 15 -20 16 -19 44 15 l30 35 24
-26 c28 -30 22 -74 -8 -62 -20 8 -35 -15 -28 -43 5 -18 1 -21 -20 -21 -14 0
-26 3 -26 8 0 5 -5 9 -12 9 -6 0 -8 -3 -5 -7 4 -3 2 -12 -3 -18 -14 -16 -1
-48 16 -41 18 7 27 -10 20 -39 -5 -18 -14 -25 -39 -27 -25 -2 -32 -7 -30 -23
1 -11 -6 -63 -17 -115 -17 -87 -28 -271 -33 -552 -1 -60 -6 -89 -14 -93 -7 -2
-13 -15 -13 -29 0 -14 -4 -27 -10 -31 -5 -3 -12 -32 -16 -65 -4 -33 -11 -60
-15 -60 -5 0 -9 5 -9 12 0 6 -2 9 -5 7 -2 -3 0 -20 5 -38 7 -25 6 -33 -5 -38
-10 -3 -13 -13 -9 -29 3 -13 2 -24 -3 -24 -4 0 -19 -18 -33 -41 -14 -22 -33
-45 -42 -50 -10 -5 -18 -19 -18 -29 0 -11 -8 -28 -17 -38 -10 -10 -19 -25 -21
-33 -2 -7 -7 -16 -12 -19 -4 -3 -10 -23 -13 -45 -10 -70 -18 -109 -27 -130
-16 -38 -18 -53 -11 -61 4 -5 -1 -31 -10 -59 -17 -49 -17 -49 -18 -16 -1 47
-9 35 -12 -17 -2 -23 -7 -42 -11 -42 -4 0 -8 -7 -8 -15 0 -8 5 -15 10 -15 6 0
10 -4 10 -10 0 -5 -7 -10 -15 -10 -25 0 -42 -22 -37 -47 3 -15 0 -23 -10 -23
-15 0 -58 -71 -58 -96 0 -8 -7 -14 -15 -14 -8 0 -15 -4 -15 -10 0 -5 -6 -7
-13 -5 -6 3 -17 -5 -22 -17 -6 -13 -20 -27 -32 -33 -13 -5 -23 -13 -23 -17 0
-5 -14 -8 -30 -8 -18 0 -33 -6 -36 -15 -4 -8 -12 -15 -19 -15 -7 0 -16 -7 -19
-16 -4 -11 -14 -15 -31 -12 -17 4 -25 1 -25 -8 0 -9 -12 -14 -35 -14 -24 0
-35 -5 -35 -15 0 -14 -17 -20 -46 -16 -7 1 -14 -5 -18 -14 -8 -21 -27 -19 -19
3 4 12 1 11 -14 -5 -11 -13 -30 -23 -42 -23 -11 0 -20 -5 -18 -11 1 -6 -4 -14
-11 -16 -8 -3 -10 1 -6 11 8 22 -13 20 -25 -2 -12 -23 -102 -47 -158 -43 -32
2 -44 -1 -49 -13 -5 -13 -20 -16 -85 -14 -58 2 -79 7 -79 17 0 9 -11 12 -40 9
-28 -2 -40 0 -40 9 0 7 -5 13 -11 13 -8 0 -8 5 1 15 10 13 9 15 -9 15 -14 0
-25 10 -33 28 -6 15 -21 48 -34 73 -13 26 -24 52 -24 59 0 7 -16 56 -35 109
-19 53 -47 137 -62 188 -15 50 -31 89 -35 87 -3 -2 -10 5 -13 16 -4 13 -13 20
-23 18 -10 -2 -21 1 -27 8 -7 7 -23 8 -52 2 -42 -9 -43 -10 -43 -49 0 -23 7
-47 15 -55 9 -10 15 -34 15 -64 0 -27 5 -52 11 -55 6 -4 8 -14 5 -22 -4 -9 -1
-21 4 -29 6 -7 10 -18 8 -26 -3 -16 24 -78 35 -78 5 0 7 -8 6 -18 -3 -30 0
-40 17 -57 13 -13 14 -21 6 -40 -9 -20 -7 -26 11 -38 18 -11 19 -17 10 -29
-10 -11 -10 -19 0 -34 8 -10 14 -44 14 -74 0 -30 -1 -47 -4 -37 -7 26 -23 10
-23 -22 0 -28 -25 -46 -59 -41 -7 1 -10 -3 -7 -9 11 -17 -102 -28 -236 -23
-63 3 -89 -8 -53 -22 9 -3 15 -18 15 -35 0 -16 5 -31 11 -33 9 -3 38 -70 39
-89 0 -4 -11 -10 -25 -13 -15 -4 -30 -17 -35 -32 -6 -14 -15 -22 -20 -19 -18
11 -22 -23 -5 -48 37 -56 -1 -165 -64 -186 -20 -7 -46 -17 -58 -23 -15 -7 -31
-7 -53 1 -21 7 -38 7 -49 1 -13 -6 -25 -4 -39 6 -12 8 -22 12 -22 7 -1 -4 -10
3 -22 17 -13 15 -19 18 -15 8 3 -10 2 -20 -3 -23 -6 -4 -10 0 -10 9 0 8 -3 22
-7 31 -5 14 -2 16 18 10 13 -4 26 -12 27 -16 6 -15 32 -10 32 6 0 8 -5 15 -11
15 -13 0 -46 40 -47 55 0 6 4 9 10 7 5 -1 7 2 3 8 -3 5 -22 10 -42 10 -27 0
-34 -3 -29 -15 3 -8 4 -15 2 -15 -3 0 -11 -3 -19 -6 -9 -3 -38 15 -72 45 -32
28 -64 51 -72 51 -7 0 -13 4 -13 10 0 5 6 9 13 7 6 -1 12 5 12 13 0 8 -8 14
-18 14 -11 -1 -24 11 -34 30 -24 47 -53 62 -53 26 0 -33 -30 -23 -46 16 -15
35 -16 35 -57 29 -23 -4 -51 -16 -62 -27 -16 -17 -17 -20 -3 -15 11 4 15 2 12
-7 -3 -8 -12 -13 -20 -12 -8 0 -21 -14 -29 -31 -12 -29 -12 -33 0 -33 8 0 15
-3 16 -7 11 -87 10 -94 -26 -109 -38 -16 -46 -34 -16 -34 23 0 83 -48 76 -60
-3 -5 4 -14 15 -20 12 -6 20 -21 20 -35 0 -20 5 -25 24 -25 34 0 56 10 56 26
0 7 11 25 24 39 l25 27 37 -18 c21 -10 53 -17 71 -15 19 1 33 -2 33 -8 0 -6
-11 -11 -24 -11 -21 0 -15 -9 49 -74 52 -51 73 -79 69 -92 -4 -21 13 -48 36
-56 9 -3 10 -7 4 -11 -6 -3 -20 2 -31 13 -26 24 -48 8 -31 -23 8 -15 12 -17
18 -6 7 11 13 9 30 -6 19 -17 20 -21 6 -31 -9 -6 -13 -13 -10 -16 2 -3 -7 -6
-21 -6 -37 0 -57 -21 -27 -28 28 -8 29 -24 2 -24 -11 0 -23 -7 -26 -15 -3 -8
-21 -17 -40 -21 -44 -8 -54 -23 -60 -81 -2 -26 -5 -52 -5 -58 -1 -5 2 -44 6
-86 5 -53 4 -79 -4 -83 -16 -10 -14 -26 4 -26 18 0 18 2 0 -51 -9 -24 -14 -52
-11 -61 2 -10 -1 -18 -6 -18 -7 0 -9 21 -5 60 4 33 3 60 -2 60 -5 0 -11 9 -14
21 -7 26 -27 16 -27 -14 0 -23 20 -62 20 -39 0 6 5 12 10 12 22 0 8 -20 -17
-26 -57 -14 -63 -21 -49 -57 27 -66 28 -75 6 -82 -31 -10 -83 28 -108 79 -12
24 -32 51 -45 59 -12 8 -28 35 -36 61 -7 25 -20 50 -29 55 -13 7 -12 12 6 39
12 16 22 37 22 45 0 9 5 19 11 22 5 4 8 12 6 18 -5 14 19 64 39 85 8 7 14 20
14 29 0 11 6 14 20 10 18 -4 20 -2 14 16 -6 19 -5 20 9 9 9 -8 21 -11 27 -7
15 9 40 -13 34 -29 -6 -15 15 -25 64 -32 32 -4 45 12 17 22 -8 4 -13 10 -10
14 3 5 1 12 -5 15 -6 4 -10 3 -9 -2 3 -19 -2 -33 -12 -33 -6 0 -8 7 -5 16 3 9
-4 24 -19 38 -14 13 -25 30 -25 38 0 45 -87 101 -111 72 -6 -7 -15 -11 -20 -8
-5 3 -9 -4 -9 -15 0 -12 -5 -20 -12 -19 -6 2 -14 -10 -18 -27 -4 -16 -17 -46
-28 -65 -20 -33 -22 -33 -22 -11 0 19 -3 22 -11 14 -9 -9 -9 -20 1 -43 11 -27
11 -34 -4 -48 -15 -15 -16 -13 -18 33 -2 51 -1 60 4 128 2 22 -2 43 -9 49 -7
6 -13 23 -13 39 0 30 -18 49 -29 31 -5 -8 -12 -5 -21 8 -8 11 -20 20 -27 20
-17 0 -17 20 0 21 6 0 1 6 -13 12 -14 7 -37 20 -52 30 -15 10 -32 16 -38 12
-5 -3 -10 -1 -10 5 0 21 -55 59 -103 71 l-47 13 6 50 c3 28 10 61 16 74 11 22
48 31 48 11 0 -5 4 -7 10 -4 5 3 16 -10 24 -29 8 -19 26 -42 41 -52 25 -17 26
-16 51 14 15 18 32 28 40 25 8 -3 14 0 14 6 0 6 18 21 40 33 37 21 54 48 30
48 -5 0 -10 6 -10 14 0 8 -12 17 -26 20 -21 6 -25 12 -22 31 8 38 -70 87 -92
59 -14 -16 -35 -19 -25 -4 12 19 -14 10 -28 -10 -8 -11 -17 -17 -20 -13 -4 3
-7 0 -7 -8 0 -8 -8 -19 -19 -26 -10 -6 -18 -23 -18 -38 -1 -32 -6 -38 -41 -42
-15 -2 -42 -6 -60 -9 -24 -5 -38 -2 -52 11 -12 11 -20 13 -20 7 0 -23 -25 -11
-47 21 -25 37 -29 53 -12 59 7 2 9 13 5 24 -5 17 -32 35 -120 75 -16 8 -33 26
-38 41 -6 16 -14 28 -19 28 -5 0 -13 8 -16 18 -11 27 -69 117 -87 131 -20 17
-21 2 -1 -36 8 -15 28 -62 45 -103 17 -41 35 -85 40 -97 6 -15 18 -23 34 -23
37 0 130 -112 188 -227 6 -13 15 -23 20 -23 4 0 8 -13 8 -29 0 -19 8 -35 20
-44 19 -13 58 -107 65 -153 5 -34 34 -84 79 -133 23 -25 57 -66 76 -91 19 -25
49 -62 66 -82 46 -52 126 -222 130 -276 4 -54 15 -68 58 -76 39 -8 55 -23 90
-93 27 -51 41 -63 76 -63 38 0 154 -80 138 -96 -2 -1 -25 -5 -53 -8 -27 -3
-80 -11 -118 -17 -60 -10 -76 -9 -150 11 -45 12 -98 25 -117 30 -89 19 -154
45 -227 88 -94 57 -152 83 -187 85 -14 1 -26 6 -26 10 0 4 -20 17 -43 27 -59
26 -206 166 -239 226 -14 27 -34 85 -43 129 -10 44 -23 91 -30 105 -8 14 -16
33 -19 42 -3 9 -24 29 -48 44 -77 48 -134 103 -159 152 -20 40 -24 65 -27 164
-4 110 -3 119 23 169 23 47 25 60 19 116 -3 36 -1 89 5 125 7 35 16 128 21
208 11 179 18 220 36 220 8 0 14 6 14 12 0 7 27 -26 59 -72 62 -89 130 -162
117 -126 -4 11 -11 40 -17 65 -6 25 -17 53 -26 63 -8 9 -12 22 -7 29 4 7 1 17
-7 23 -23 18 -96 141 -104 175 -3 17 -12 34 -19 38 -7 5 -23 29 -36 55 -17 34
-21 55 -16 80 15 75 18 148 7 162 -6 7 -14 43 -17 79 -4 49 -2 68 10 79 8 9
12 24 9 37 -3 11 -1 21 4 21 6 0 8 11 6 24 -3 13 0 27 6 30 10 7 16 56 7 56
-2 0 -22 -6 -44 -14 -51 -18 -90 -52 -107 -93 -9 -20 -21 -33 -32 -33 -19 0
-63 56 -63 80 0 7 -12 28 -26 47 -14 18 -28 50 -31 71 -6 49 -52 190 -64 197
-11 7 -49 93 -49 112 0 8 -9 31 -20 51 -26 49 -80 177 -80 191 0 6 5 11 10 11
6 0 10 7 10 15 0 9 9 33 20 55 23 45 24 60 9 113 -6 22 -16 37 -25 37 -9 0
-14 6 -11 13 2 6 -4 22 -15 34 -22 24 -19 38 12 46 15 4 22 -1 26 -18 5 -21
54 -77 54 -62 0 3 15 0 34 -8 22 -10 36 -11 38 -4 2 5 33 11 70 13 45 2 72 9
83 20 21 20 20 20 73 -6 43 -20 46 -20 58 -3 11 14 10 21 -2 40 -19 30 -55 38
-104 25 -27 -7 -45 -7 -57 0 -40 22 -141 48 -193 49 -46 0 -59 5 -78 26 -12
14 -22 36 -22 48 -1 46 -37 164 -63 208 -15 25 -27 51 -27 57 0 7 -5 12 -11
12 -7 0 -9 10 -5 25 5 20 0 28 -29 47 -22 14 -50 48 -71 84 -20 37 -50 73 -74
89 -40 28 -51 50 -27 58 6 2 22 -3 35 -11 26 -17 32 -14 36 22 1 14 6 29 9 33
15 15 7 34 -12 28 -25 -8 -34 7 -17 30 16 23 9 55 -13 56 -14 1 -14 2 1 6 9 2
30 -9 47 -26 18 -17 38 -31 46 -31 8 0 15 -4 15 -9 0 -5 7 -17 16 -25 12 -12
34 -16 89 -15 40 1 78 -2 84 -5 16 -10 13 -26 -4 -26 -9 0 -18 -7 -21 -15 -4
-9 -19 -15 -40 -15 -24 0 -34 -5 -34 -15 0 -21 4 -30 11 -28 3 1 4 -10 1 -24
-5 -24 -2 -23 37 17 37 38 44 42 64 32 12 -6 36 -12 52 -14 19 -2 36 -12 46
-28 15 -23 14 -28 -3 -69 -16 -37 -17 -46 -5 -52 10 -6 14 -34 15 -108 0 -87
3 -104 23 -130 32 -43 42 -39 33 12 -5 23 -8 54 -9 70 0 15 -3 27 -7 27 -8 0
-2 79 6 87 13 13 34 -8 39 -39 6 -39 26 -115 38 -143 4 -11 9 -29 11 -40 3
-15 10 -19 29 -17 15 1 32 -4 39 -13 7 -8 21 -15 31 -15 15 0 19 -7 19 -31 0
-20 4 -29 13 -26 6 2 12 16 12 30 0 33 22 58 34 38 5 -7 14 -11 20 -7 6 4 24
-8 40 -26 16 -18 45 -50 65 -70 32 -33 36 -43 36 -90 0 -36 8 -69 25 -103 13
-27 25 -56 25 -62 0 -7 11 -20 25 -29 30 -19 33 -44 5 -44 -24 0 -44 -67 -37
-122 3 -20 -1 -48 -8 -62 -7 -13 -10 -27 -7 -30 3 -4 7 -23 8 -44 2 -20 6 -51
9 -69 4 -24 1 -34 -12 -42 -17 -10 -16 -10 3 -11 23 0 58 -32 48 -43 -4 -4 1
-9 10 -13 9 -3 16 -13 16 -21 0 -20 27 -46 35 -33 9 15 25 12 32 -6 3 -9 0
-20 -8 -25 -10 -6 -11 -11 -3 -16 6 -5 14 -18 18 -30 4 -13 11 -23 16 -23 8 0
21 -33 24 -60 0 -8 10 -16 21 -16 11 -1 25 -2 32 -3 6 -1 22 -15 34 -32 17
-24 19 -35 11 -53 -13 -30 -1 -48 29 -44 36 5 49 17 49 43 0 16 -7 25 -24 29
-31 8 -96 98 -90 123 3 11 -3 26 -15 37 -12 11 -21 25 -21 32 0 7 -9 19 -21
27 -22 16 -19 21 25 31 l29 7 -7 61 c-3 34 -11 65 -17 68 -5 4 -9 11 -8 16 1
5 -1 21 -5 37 -5 16 -4 32 2 40 5 6 13 37 17 67 7 53 7 54 -11 39 -24 -21 -44
-14 -44 15 0 12 -5 27 -10 32 -6 6 -12 40 -14 75 -1 41 -10 80 -24 108 -12 25
-22 51 -22 59 0 15 -15 52 -56 137 -27 56 -29 82 -13 118 17 37 -12 84 -66
108 -24 10 -50 16 -59 13 -12 -5 -16 0 -16 19 0 14 -3 32 -6 41 -5 12 1 16 24
16 29 0 45 -17 46 -50 0 -16 15 -30 32 -30 6 0 9 12 6 30 -3 23 0 30 12 30 9
0 16 4 16 10 0 5 -6 9 -12 7 -9 -1 -13 12 -13 39 0 23 -7 53 -15 68 -11 22
-12 31 -2 46 16 27 16 27 -19 34 -22 4 -30 11 -27 23 5 27 35 27 61 1 23 -23
26 -23 63 -11 21 7 43 18 48 23 15 15 56 12 73 -5 11 -12 33 -15 77 -14 46 1
71 -4 104 -21 23 -12 42 -26 42 -30 0 -5 -11 -30 -24 -57 -22 -43 -23 -54 -15
-111 10 -69 7 -82 -19 -82 -9 0 1 -13 26 -31 29 -21 42 -38 42 -54 0 -13 5
-27 10 -30 6 -4 10 -14 9 -23 -1 -10 5 -34 14 -54 27 -61 26 -100 -3 -114 -19
-10 -26 -10 -32 -1 -6 9 -8 9 -8 0 0 -22 -26 -14 -40 12 -16 29 -56 34 -62 8
-3 -10 2 -35 9 -57 7 -21 10 -42 7 -48 -3 -5 0 -15 6 -23 9 -11 6 -25 -14 -65
-14 -29 -24 -56 -21 -61 3 -5 1 -26 -6 -47 -9 -33 -8 -44 11 -85 25 -53 45
-63 35 -17 -4 18 -2 36 4 44 13 16 11 37 -4 48 -6 5 -6 17 1 37 7 16 9 41 7
56 -4 18 -2 25 8 23 7 -2 15 9 18 25 l6 29 23 -31 c24 -32 62 -42 62 -16 0 21
13 19 28 -5 7 -11 17 -20 23 -20 6 0 24 -14 40 -31 31 -34 40 -73 14 -63 -13
5 -14 2 -5 -20 7 -20 5 -33 -11 -61 -12 -19 -24 -35 -28 -35 -14 0 -31 25 -31
47 0 12 -5 34 -12 48 -10 22 -16 25 -42 19 -42 -9 -61 -24 -44 -35 8 -5 13
-30 13 -69 0 -47 3 -60 16 -60 16 0 65 -50 87 -87 14 -27 16 -73 2 -73 -16 0
-12 -47 5 -54 21 -8 19 -28 -5 -54 -25 -26 -27 -77 -3 -86 11 -5 13 -10 6 -17
-13 -13 -4 -59 13 -66 8 -3 14 -14 14 -25 0 -14 -5 -18 -15 -14 -13 4 -13 2
-5 -14 13 -24 13 -26 -6 -45 -18 -17 -11 -49 9 -43 22 8 35 52 39 135 l3 81
37 13 c20 6 44 9 52 6 10 -4 16 -1 16 7 0 8 -5 16 -11 18 -14 5 9 58 25 58 27
-1 45 -27 38 -53 -4 -15 -10 -27 -14 -27 -5 0 -12 0 -18 0 -20 0 -9 -21 15
-30 15 -6 25 -17 25 -30 0 -11 4 -20 9 -20 15 0 22 -32 11 -46 -9 -9 -6 -15 9
-23 29 -16 58 -13 65 5 8 21 8 36 -1 31 -5 -3 -8 12 -8 32 -1 20 -11 58 -23
84 -12 26 -22 53 -22 60 0 20 -36 51 -45 38 -7 -12 -45 3 -45 18 0 15 32 22
46 10 11 -9 14 -7 14 10 0 12 -4 20 -9 17 -5 -3 -20 0 -34 7 -24 13 -24 14
-11 54 13 38 13 45 -4 75 -10 18 -22 46 -26 61 -5 22 -11 27 -26 22 -16 -5
-20 -2 -20 20 0 22 3 25 21 20 18 -6 19 -5 10 13 -6 12 -16 24 -21 27 -6 3
-10 20 -10 37 0 26 2 29 15 18 23 -19 20 32 -5 72 -11 18 -20 46 -20 62 0 32
-15 87 -35 126 -8 14 -17 58 -20 98 -4 40 -12 75 -16 78 -5 3 -9 28 -9 55 0
28 -4 59 -10 69 -8 15 -5 19 15 24 23 6 24 9 21 69 -2 34 -9 114 -17 178 -12
108 -11 121 8 205 12 50 33 115 47 146 14 31 26 61 26 66 0 17 82 71 117 78
18 3 33 9 33 13 0 3 21 28 45 54 25 26 45 54 45 61 0 8 10 20 23 29 23 15 30
50 14 75 -5 7 -4 12 3 12 14 0 45 29 33 32 -4 0 -12 2 -18 3 -5 2 -20 3 -33 4
-17 1 -22 5 -18 19 3 9 -2 31 -10 47 -9 17 -22 50 -28 75 -8 30 -20 48 -34 55
-21 9 -27 23 -23 54 2 7 -4 11 -11 9 -7 -3 -14 -14 -16 -25 -2 -12 -12 -23
-24 -26 -24 -7 -68 19 -68 39 0 17 -31 19 -47 3 -8 -8 -17 -8 -32 0 -19 11
-21 9 -18 -19 4 -29 91 -150 109 -150 5 0 7 4 3 9 -3 5 0 13 5 16 7 4 9 19 5
35 -7 33 9 48 31 29 10 -8 13 -21 9 -36 -8 -32 26 -63 68 -63 37 0 63 -32 59
-75 -1 -15 5 -24 18 -28 34 -9 22 -25 -22 -31 -150 -21 -152 -21 -178 17 -13
19 -36 43 -52 53 -26 18 -98 116 -98 135 0 5 -20 51 -45 103 -25 53 -45 98
-45 100 0 3 -11 30 -25 60 -29 64 -33 95 -10 76 8 -7 15 -20 15 -30 0 -10 7
-21 16 -24 11 -4 20 5 31 32 8 20 19 45 24 54 6 12 2 25 -16 46 -24 29 -33 62
-17 62 5 0 18 9 30 21 23 21 42 18 42 -7 0 -8 -9 -14 -21 -14 -23 0 -21 -23 3
-28 20 -4 41 73 28 99 -7 12 -5 19 7 23 21 9 27 1 43 -56 11 -42 70 -118 70
-90 0 19 28 14 51 -9 19 -19 19 -22 5 -38 -22 -24 -20 -44 4 -59 12 -7 18 -17
15 -23 -10 -15 13 -38 34 -32 21 5 38 -13 43 -47 2 -17 9 -25 21 -24 9 1 17
-2 17 -7 0 -5 5 -9 10 -9 14 0 13 73 -1 87 -7 7 -8 19 -4 30 14 31 16 46 19
114 1 36 6 71 10 77 4 6 2 20 -3 30 -6 11 -6 23 -2 28 10 10 19 78 24 182 2
43 9 77 16 81 6 4 12 28 13 54 0 36 5 48 19 52 10 3 20 14 23 23 18 57 29 128
32 202 1 46 7 93 12 105 9 18 32 130 38 182 4 35 15 63 25 63 5 0 9 7 9 15 0
8 9 20 20 27 11 7 20 20 20 29 0 9 9 26 20 39 11 13 20 31 20 41 0 9 11 31 25
47 14 17 25 33 25 37 0 3 17 43 39 88 53 113 62 137 56 148 -4 5 -1 9 4 9 6 0
11 6 11 14 0 8 7 16 15 20 8 3 22 20 31 38 28 59 84 87 199 101 63 8 75 18 75
58 0 27 4 39 14 39 7 0 27 7 42 15 16 8 37 15 47 15 10 0 26 7 35 16 14 15 17
15 21 1 5 -13 10 -13 44 0 20 8 37 19 37 24 0 5 8 9 18 9 23 0 64 29 57 41 -4
5 0 9 8 9 7 0 24 11 37 25 28 30 40 32 40 5 0 -21 15 -27 25 -10 3 6 17 10 31
10 14 0 24 6 24 14 0 11 9 13 38 9 37 -6 37 -6 18 15 -18 21 -18 21 10 27 16
4 40 11 54 17 14 6 57 14 95 19 166 19 185 22 185 30 0 5 -16 9 -35 9 -19 0
-35 5 -35 11 0 7 26 9 75 7 55 -2 75 0 75 10 0 13 22 14 60 2z m-2311 -232 c6
-15 4 -30 -5 -43 -8 -11 -14 -34 -14 -52 0 -41 -34 -75 -66 -67 -26 7 -32 -7
-35 -78 -3 -61 -12 -76 -33 -59 -9 7 -13 17 -10 22 3 5 1 9 -5 9 -14 0 -2 32
17 47 12 10 13 15 3 27 -10 12 -9 21 5 46 10 17 24 28 31 26 9 -4 13 4 13 24
0 34 26 70 51 70 10 0 20 11 23 25 8 31 14 32 25 3z m2285 -1237 c-4 -20 -6
-42 -5 -49 1 -7 -6 -15 -16 -19 -10 -4 -24 -15 -32 -26 -10 -15 -21 -17 -54
-13 -46 7 -42 4 -51 34 -6 16 -3 22 9 22 8 0 18 7 21 15 4 8 13 15 20 15 8 0
19 12 24 26 6 14 19 28 29 31 11 3 17 11 15 18 -4 8 3 15 18 17 27 4 34 -16
22 -71z m-1923 -363 c3 -4 4 -37 3 -71 -3 -56 -1 -64 19 -72 13 -6 24 -23 28
-42 4 -18 12 -40 19 -48 17 -21 7 -40 -24 -43 -28 -2 -52 28 -42 54 3 7 -3 18
-14 24 -10 5 -21 24 -25 42 -4 18 -13 40 -20 48 -19 22 -27 57 -15 65 5 3 10
16 10 29 0 12 3 26 7 29 8 9 46 -2 54 -15z m3042 -615 c8 -21 11 -40 6 -43 -4
-3 -11 -25 -15 -48 -4 -23 -10 -43 -15 -43 -5 -1 -13 -3 -19 -4 -5 -1 -14 -3
-20 -4 -5 0 -10 -10 -10 -22 0 -12 -8 -23 -20 -26 -11 -3 -20 -14 -20 -24 0
-11 -20 -47 -45 -81 -25 -34 -45 -65 -45 -69 0 -4 -9 -9 -21 -12 -14 -4 -19
-11 -15 -24 3 -13 -5 -24 -30 -41 -45 -28 -58 -20 -51 32 5 36 -2 67 -28 129
-6 14 -3 17 16 15 22 -3 24 1 27 49 2 29 9 56 17 63 8 7 15 18 15 26 0 7 9 18
21 24 20 11 21 27 3 74 -7 19 44 35 55 18 12 -20 81 5 81 28 0 17 7 20 49 20
47 0 49 -1 64 -37z m-3513 -480 c-57 -10 -97 -27 -123 -55 -22 -24 -25 -33
-16 -44 6 -8 20 -14 31 -14 18 0 88 -66 88 -82 0 -14 -30 -9 -58 9 -38 24 -72
61 -72 78 0 11 -8 13 -32 7 -40 -8 -72 -7 -118 5 -33 8 -34 10 -15 21 18 10
17 11 -12 12 -18 0 -33 5 -33 10 0 6 11 10 24 10 13 0 26 6 29 14 6 14 30 16
43 3 12 -11 24 -8 22 6 -2 8 24 14 92 18 118 7 183 8 150 2z m188 -43 c12 -12
23 -31 24 -43 0 -12 2 -26 3 -32 2 -5 3 -16 4 -22 0 -7 7 -13 15 -13 32 0 30
-66 -5 -162 -10 -27 -16 -55 -14 -61 7 -19 -12 -40 -29 -34 -10 4 -16 18 -16
36 0 20 -6 30 -20 34 -15 4 -20 14 -20 36 0 17 -4 31 -9 31 -5 0 -8 -11 -5
-25 7 -37 -14 -30 -30 10 -8 19 -19 35 -24 35 -5 0 -14 11 -20 25 -6 14 -20
25 -29 25 -14 0 -15 2 -4 9 8 5 12 18 8 31 -7 28 1 50 19 50 8 0 14 5 14 10 0
6 8 14 18 17 9 4 30 19 45 35 34 33 46 35 75 8z m-785 -228 c74 -4 145 -63
117 -96 -8 -11 1 -25 38 -62 26 -27 56 -54 67 -60 23 -13 11 -37 -15 -29 -10
3 -22 0 -26 -7 -6 -9 -10 -5 -14 12 -5 19 -7 21 -12 9 -10 -25 7 -41 43 -43
32 -1 34 -4 37 -39 4 -46 -14 -49 -82 -11 -54 30 -64 43 -44 58 40 30 17 86
-42 99 -111 25 -185 57 -130 57 11 0 20 5 20 10 0 6 -4 10 -10 10 -13 0 -60
52 -60 68 0 19 60 42 85 32 11 -4 23 -8 28 -8z m-805 -39 c22 -5 31 -23 12
-23 -5 0 -10 -7 -10 -15 0 -8 -7 -15 -15 -15 -22 0 -18 -28 6 -40 17 -10 20
-9 19 7 -4 31 0 36 15 23 11 -9 12 -16 5 -25 -8 -9 -8 -15 0 -20 5 -3 10 -12
10 -20 0 -17 -32 -29 -41 -14 -8 14 -29 3 -29 -15 0 -7 -11 -23 -25 -36 -14
-13 -25 -29 -25 -36 0 -32 83 -26 120 8 20 19 23 19 38 4 13 -13 14 -19 5 -24
-10 -7 -10 -12 2 -28 8 -10 15 -29 15 -41 0 -12 5 -25 10 -28 19 -11 10 -43
-17 -65 -32 -25 -57 -76 -42 -86 7 -4 7 -10 1 -16 -6 -6 -8 -16 -6 -23 3 -6
-2 -18 -11 -25 -8 -7 -15 -25 -15 -40 0 -16 -5 -30 -11 -32 -9 -3 -9 -9 0 -25
6 -12 11 -43 11 -69 0 -30 6 -54 17 -66 17 -19 43 -24 43 -9 0 15 48 41 64 35
17 -7 23 -94 7 -94 -5 0 -7 -9 -4 -19 3 -12 -3 -26 -16 -37 -12 -10 -21 -24
-21 -31 0 -18 -13 -16 -41 5 -13 10 -39 24 -56 31 -18 8 -33 17 -33 21 0 5
-14 17 -31 28 -44 27 -249 232 -249 248 0 7 -7 17 -16 22 -9 5 -14 18 -12 33
3 21 7 24 40 21 34 -3 38 -1 52 31 7 19 19 37 24 41 6 4 19 33 29 66 9 33 21
60 25 60 4 0 5 -7 2 -15 -4 -10 0 -15 11 -15 9 0 14 4 10 9 -3 5 4 12 15 16
22 7 26 21 8 28 -10 3 -10 7 -2 18 7 8 17 31 22 51 10 36 9 38 -11 32 -12 -3
-37 1 -56 9 l-33 14 27 7 c19 5 31 3 36 -6 4 -7 11 -9 14 -6 4 4 0 17 -9 30
-9 12 -16 32 -16 45 0 29 -18 39 -34 18 -11 -15 -13 -15 -30 4 -18 19 -17 21
9 45 16 15 33 26 40 26 7 0 18 6 25 14 6 8 24 17 38 19 25 4 34 3 90 -10z
m217 -563 c17 -21 38 -39 48 -40 25 0 77 -38 77 -55 0 -8 13 -23 30 -35 23
-17 29 -27 25 -48 -16 -86 -16 -110 -5 -161 15 -66 47 -138 73 -164 12 -12 17
-27 13 -39 -3 -12 2 -34 10 -50 13 -25 17 -108 6 -108 -9 0 -62 60 -62 69 0 6
-13 29 -28 53 -16 24 -35 59 -42 78 -7 19 -28 58 -47 86 -18 28 -33 60 -33 70
0 36 -12 63 -25 58 -8 -3 -15 7 -19 26 -7 36 -1 50 20 50 20 0 9 38 -17 63
-11 10 -19 26 -19 36 0 28 -26 46 -44 32 -12 -10 -15 -6 -14 31 0 54 6 88 16
88 4 -1 21 -19 37 -40z m5520 -580 c-5 -16 -2 -20 19 -20 27 0 56 -23 56 -45
0 -8 9 -20 20 -28 11 -8 17 -17 14 -20 -4 -4 -1 -13 6 -22 8 -10 9 -15 1 -15
-6 0 -8 -11 -4 -30 3 -19 1 -30 -6 -30 -6 0 -11 -6 -11 -14 0 -7 -7 -19 -15
-26 -8 -7 -12 -16 -9 -22 3 -5 -6 -24 -20 -42 -19 -25 -24 -44 -23 -74 2 -26
-2 -43 -10 -46 -7 -3 -13 -12 -13 -21 0 -8 -7 -15 -15 -15 -8 0 -15 -8 -15
-18 0 -26 -60 -142 -76 -149 -8 -3 -14 -11 -14 -18 0 -8 -8 -21 -17 -31 -10
-10 -18 -25 -19 -33 -3 -45 -5 -51 -18 -51 -7 0 -16 -15 -20 -32 -5 -26 -9
-30 -16 -18 -9 13 -10 13 -10 0 0 -12 -17 -15 -83 -16 -45 -1 -72 0 -59 3 31
6 28 23 -8 36 -36 14 -38 23 -6 31 22 5 24 9 16 37 -5 17 -15 37 -21 45 -10
12 -8 16 9 21 24 6 31 33 9 33 -8 0 -18 21 -25 49 -9 40 -9 55 2 76 9 18 16
22 19 13 3 -7 6 2 6 20 1 19 -4 32 -11 32 -7 0 -4 6 7 12 29 16 29 16 16 31
-9 11 -8 17 4 27 8 7 12 16 9 21 -6 11 25 70 44 82 6 4 12 15 12 22 0 8 5 15
10 15 6 0 10 5 10 10 0 6 9 19 20 30 12 12 20 33 20 55 0 30 3 35 23 35 29 0
51 15 43 28 -3 6 -1 14 5 18 6 4 16 -1 21 -10 5 -9 16 -16 23 -16 19 0 19 5
-2 37 -12 18 -13 24 -4 19 8 -5 17 -3 22 5 8 12 11 12 19 -1 9 -13 10 -13 10
0 0 8 10 20 23 26 33 17 39 16 32 -6z m-4872 -1384 c32 -31 45 -63 50 -126 2
-19 -3 -25 -18 -24 -36 3 -66 16 -62 29 3 6 -3 16 -12 22 -11 7 -18 25 -19 47
-1 20 -6 45 -12 55 -14 28 -13 31 14 31 14 0 39 -14 59 -34z m-957 -332 c62
-64 182 -114 274 -114 31 0 60 -4 65 -8 6 -5 28 -14 51 -20 45 -13 133 -87
112 -94 -11 -4 -11 -13 -1 -51 10 -38 10 -52 0 -70 -16 -30 -27 -37 -58 -37
-38 0 -92 40 -196 146 -73 75 -98 94 -120 94 -16 0 -35 6 -42 13 -11 10 -14 9
-18 -2 -3 -7 -14 -22 -24 -32 -19 -19 -19 -20 11 -25 16 -4 30 -10 30 -14 0
-4 16 -18 36 -32 35 -25 35 -26 15 -40 -11 -8 -44 -15 -73 -17 -28 -1 -56 -5
-61 -8 -5 -3 -13 1 -18 8 -12 19 -11 106 1 114 15 9 12 23 -11 46 -20 20 -20
23 -5 31 14 8 16 18 10 56 -4 25 -13 52 -20 60 -8 7 -14 18 -14 23 0 18 21 8
56 -27z m258 -537 c3 3 6 -1 6 -10 0 -9 7 -17 15 -17 24 0 20 -57 -5 -65 -11
-3 -20 -11 -20 -16 0 -5 -10 -9 -23 -9 -13 0 -28 -5 -34 -11 -8 -8 -17 -7 -34
3 -37 20 -40 30 -14 56 19 19 23 31 20 68 l-4 45 43 -25 c24 -14 46 -22 50
-19z m546 -545 c0 -4 10 -12 23 -17 14 -7 23 -20 25 -40 2 -16 9 -37 16 -45
31 -36 23 -90 -13 -90 -12 0 -21 10 -25 25 -4 14 -13 25 -21 25 -8 0 -25 12
-38 26 -21 23 -27 24 -47 14 -12 -6 -33 -9 -47 -5 -13 3 -22 2 -19 -3 6 -10
-21 -52 -33 -52 -5 0 -20 9 -35 21 -22 18 -24 22 -12 35 8 7 16 19 18 24 2 6
28 14 58 17 52 5 80 16 78 31 -4 33 4 42 37 42 19 0 35 -3 35 -8z m-613 -417
c8 -14 20 -19 41 -17 17 2 33 -2 37 -8 4 -7 11 -8 18 -1 24 19 77 17 77 -3 0
-18 -39 -28 -79 -20 -27 6 -31 4 -31 -16 0 -20 4 -22 34 -16 44 8 99 -26 119
-74 24 -57 8 -61 -80 -18 -49 24 -93 19 -93 -12 0 -11 -9 -29 -20 -40 -11 -11
-20 -29 -20 -40 0 -12 -7 -20 -17 -20 -30 0 -83 24 -83 37 0 7 -7 13 -15 13
-9 0 -18 7 -21 15 -4 8 -14 15 -23 15 -19 1 -81 99 -81 128 0 16 7 21 33 24
28 3 32 6 29 29 -3 24 1 27 35 31 21 3 39 1 41 -3 2 -4 15 -1 30 7 34 17 54
14 69 -11z"/>
<path d="M1553 4192 c-6 -4 -43 -7 -82 -6 l-71 2 -2 -32 c-1 -17 -2 -42 -2
-56 -1 -21 -7 -26 -35 -28 -62 -6 -81 4 -81 43 0 19 -4 35 -9 35 -5 0 -30 -20
-55 -44 l-45 -44 4 -67 c3 -61 7 -69 39 -101 19 -19 42 -34 51 -34 11 0 15
-11 15 -44 0 -45 15 -61 45 -50 17 7 20 24 5 24 -5 0 -10 7 -10 15 0 11 5 12
26 5 34 -13 33 -14 44 16 7 17 15 24 25 20 10 -4 15 1 15 14 0 11 6 20 14 20
9 0 15 19 19 61 4 33 14 67 22 75 8 9 15 24 15 36 0 11 15 35 34 53 36 35 53
72 39 86 -4 4 -13 5 -20 1z"/>
<path d="M1448 3780 c-15 -24 -31 -25 -48 -5 -19 23 -40 18 -40 -10 0 -22 3
-25 25 -19 17 4 25 2 25 -7 0 -8 9 -25 20 -39 11 -14 20 -34 20 -45 0 -15 -3
-16 -9 -7 -6 10 -10 8 -14 -9 -3 -13 -1 -29 5 -36 12 -15 44 -17 53 -3 12 20
23 165 14 182 -13 24 -36 23 -51 -2z"/>
<path d="M1546 3458 c-9 -13 -28 -32 -44 -42 -29 -19 -30 -20 -27 -110 1 -50
3 -93 5 -96 1 -3 1 -15 0 -27 -1 -18 4 -23 22 -23 20 0 29 10 47 56 l24 56 48
-4 c27 -2 50 1 51 7 2 6 -14 11 -34 13 -37 3 -38 4 -37 40 1 20 3 29 6 20 7
-27 23 -21 23 8 0 21 -4 25 -20 21 -16 -4 -20 0 -21 21 -1 15 -3 34 -4 42 -1
8 -3 21 -4 28 -2 19 -19 14 -35 -10z"/>
<path d="M1870 3215 c0 -11 -13 -14 -62 -12 -70 2 -96 -19 -31 -26 33 -3 35
-5 16 -12 -13 -4 -23 -11 -23 -16 0 -5 -9 -9 -20 -9 -11 0 -23 -8 -26 -17 -10
-34 -43 -90 -66 -115 -24 -24 -23 -33 7 -52 19 -12 25 -25 25 -51 0 -19 -4
-35 -10 -35 -6 0 -10 -28 -10 -64 0 -35 -7 -80 -16 -102 -11 -27 -14 -52 -9
-90 6 -54 23 -76 65 -89 33 -10 50 -24 50 -42 0 -16 38 -52 56 -53 5 0 19 -8
30 -19 56 -52 94 -51 94 3 0 33 26 58 39 38 3 -5 38 -8 76 -7 39 1 79 -2 91
-6 18 -6 20 -4 16 23 l-5 30 -88 -6 c-54 -3 -89 -1 -89 4 0 6 -7 10 -15 10 -8
0 -25 10 -36 21 -18 18 -30 21 -77 17 -72 -6 -115 11 -132 53 -12 28 -11 33 3
44 19 14 23 45 5 45 -23 0 25 39 56 46 69 14 116 92 121 199 2 39 8 97 13 130
6 37 6 67 0 78 -5 9 -6 22 -3 27 13 21 -6 70 -26 70 -10 0 -19 -7 -19 -15z"/>
<path d="M2414 3025 c3 -8 2 -15 -2 -15 -4 0 -6 -18 -4 -40 3 -26 -1 -45 -11
-54 -12 -12 -24 -62 -32 -137 -1 -9 -6 -22 -10 -29 -4 -7 -9 -37 -12 -68 -2
-31 -9 -62 -14 -69 -6 -6 -8 -17 -5 -22 4 -5 0 -13 -7 -18 -26 -14 -28 -47 -6
-87 24 -45 19 -54 -20 -39 -51 19 -58 -1 -18 -44 20 -21 37 -43 37 -50 0 -7 6
-10 14 -7 18 7 27 -8 31 -56 5 -60 59 -113 80 -80 5 8 11 8 19 1 10 -8 11 -4
8 18 -3 19 -11 31 -26 35 -21 6 -20 7 7 29 22 19 27 31 27 67 0 25 5 72 11
105 5 33 12 109 14 169 3 60 8 119 12 130 11 34 3 139 -14 165 -10 16 -13 36
-9 61 6 41 -3 50 -51 50 -18 0 -24 -4 -19 -15z"/>
<path d="M2803 2708 c7 -21 -3 -31 -18 -18 -9 7 -16 6 -24 -4 -9 -11 -9 -22 2
-48 8 -18 13 -47 11 -63 -2 -16 3 -43 10 -59 8 -17 19 -46 26 -63 15 -40 43
-43 66 -8 15 24 17 24 40 7 13 -9 26 -24 29 -33 4 -11 13 -15 29 -12 19 4 25
0 30 -21 3 -14 4 -43 0 -63 -5 -31 -2 -42 15 -57 12 -11 21 -27 21 -37 0 -10
4 -20 9 -23 5 -3 12 -23 15 -43 14 -81 18 -93 31 -93 8 0 18 -7 23 -16 8 -15
10 -15 16 1 3 10 -3 29 -15 47 l-22 30 33 28 c20 17 28 30 21 34 -6 4 -15 4
-21 1 -5 -3 -10 -1 -10 4 0 6 15 11 33 11 19 0 36 3 40 6 7 7 -47 64 -61 64
-15 0 -26 145 -12 170 6 12 10 23 8 24 -2 2 -33 20 -70 40 -73 41 -98 60 -197
151 -35 33 -62 53 -58 43z"/>
<path d="M0 3481 c0 -56 4 -101 9 -101 5 0 19 -16 31 -35 18 -29 20 -38 10
-50 -7 -8 -20 -15 -30 -15 -16 0 -18 -11 -19 -105 -1 -104 -1 -105 22 -105 33
0 40 10 21 32 -24 26 -2 51 38 43 30 -7 41 11 13 21 -8 4 -15 15 -15 26 0 16
4 18 18 12 27 -13 232 -7 232 7 0 4 -17 22 -38 41 -20 19 -50 61 -67 93 -29
58 -102 138 -184 203 l-41 33 0 -100z"/>
</g>
</svg>
